<svg id="Layer_7_copy" data-name="Layer 7 copy" xmlns="http://www.w3.org/2000/svg" viewBox="0 0 787.39 833.66"><defs><style>.cls-1{fill:#b8bebe;}</style></defs><title>GREYCAT-HEAD-RGB</title><path class="cls-1" d="M283,520.21l-55.4-10.74-34-56.36,44.53,2.69,38.13,38.4Zm-120.31-69,46,76.25a12.77,12.77,0,0,0,8.49,5.94l72.91,14.13,26,100.46H252L92,562.45l-58.16-119ZM393.69,740l55.17,36.88a12.69,12.69,0,0,0,7.08,2.15,12.89,12.89,0,0,0,4.8-.93l41-16.63-19.79,24-88.24,22.23-88.23-22.23-19.79-24,41,16.63a12.89,12.89,0,0,0,4.8.93,12.69,12.69,0,0,0,7.08-2.15ZM511.15,494.2l38.13-38.4,44.53-2.69-34,56.36-55.4,10.74Zm-13.83,53.36,72.91-14.13a12.77,12.77,0,0,0,8.49-5.94l46-76.25,128.88-7.8-58.16,119L535.38,648h-64.1Zm226.42,55.58c-13.39,12.44-98.62,65-179,112.11l-53.07-41.73h46.93a12.84,12.84,0,0,0,6-1.5L711.1,583a12.72,12.72,0,0,0,5.45-5.65L739.71,530C732.54,562.85,725.9,593.3,723.74,603.14ZM456,677.91l62.54,49.18-61.09,24.79-44.34-29.65Zm-126,74-61.09-24.79,62.54-49.18,42.89,44.32ZM70.84,577.35A12.72,12.72,0,0,0,76.29,583l166.52,89a12.84,12.84,0,0,0,6,1.5h46.92l-53.06,41.73C162.27,668.14,77,615.58,63.64,603.14c-2.16-9.84-8.79-40.29-16-73.18Zm675.6,39.28c10.1-46.06,40.37-183.12,40.68-184.53,0-.06,0-.12,0-.19.05-.27.06-.55.1-.83a11.72,11.72,0,0,0,.14-1.3,5.23,5.23,0,0,0,0-.56c0-.27,0-.54-.06-.81a9.85,9.85,0,0,0-.1-1.08c0-.27-.11-.52-.17-.78s0-.26,0-.38L741.28,250.79,786.69,121c.06-.17.07-.34.13-.51a14.7,14.7,0,0,0,.39-1.62c0-.3.08-.6.11-.9a13.29,13.29,0,0,0,0-1.41c0-.33,0-.65,0-1s-.13-.89-.22-1.33-.12-.65-.21-1a2,2,0,0,0-.06-.26L754.76,9c0-.16-.15-.29-.2-.45A12.53,12.53,0,0,0,754,7c-.14-.28-.33-.51-.48-.77s-.32-.53-.5-.78a11.92,11.92,0,0,0-1.72-2c-.11-.1-.19-.22-.3-.31a12.43,12.43,0,0,0-2.54-1.71,7.41,7.41,0,0,0-.7-.31,12.83,12.83,0,0,0-2.36-.79c-.16,0-.31-.13-.48-.16a2.44,2.44,0,0,1-.27,0,12.42,12.42,0,0,0-3-.14,4.93,4.93,0,0,0-.67.11,13.05,13.05,0,0,0-2.35.53c-.32.11-.62.23-.93.36s-.51.16-.76.29L669.28,35.16a13.3,13.3,0,0,0-2.12,1.34L500.73,166H286.66L120.23,36.5a13.43,13.43,0,0,0-2.12-1.33L50.53,1.33c-.26-.13-.53-.19-.79-.3S49.17.8,48.88.7A12.76,12.76,0,0,0,46.34.12C46.18.1,46,.05,45.87,0a12.5,12.5,0,0,0-3.12.14,2.26,2.26,0,0,1-.26,0c-.17,0-.31.12-.47.16a13.15,13.15,0,0,0-2.37.78c-.23.11-.47.2-.7.32a12.32,12.32,0,0,0-2.53,1.7c-.12.11-.22.24-.34.35a12.67,12.67,0,0,0-1.68,2c-.18.27-.35.54-.52.82s-.33.47-.47.74a13.84,13.84,0,0,0-.56,1.47c-.06.17-.17.31-.22.49L.54,113.06c0,.09,0,.19-.06.28-.08.29-.13.59-.19.89a11.5,11.5,0,0,0-.23,1.41c0,.31,0,.62,0,.93A11.55,11.55,0,0,0,.07,118c0,.3.06.6.11.9a12.12,12.12,0,0,0,.38,1.58c.06.18.07.36.13.54L46.11,250.8.39,426.17c0,.12,0,.25-.06.37s-.12.53-.16.8-.08.71-.11,1.07,0,.53-.06.8v.58c0,.43.09.86.15,1.29a7.35,7.35,0,0,0,.1.82,1.36,1.36,0,0,0,0,.2c.36,1.65,35.31,162.25,38.89,178.47l2.76,11.08c25.19,17.6,99,63.71,193.42,118.86l53.11,64.36a12.77,12.77,0,0,0,6.72,4.24l93.06,23.46a12.71,12.71,0,0,0,5,1.09c.14,0,.28,0,.42-.06s.29.06.43.06a12.62,12.62,0,0,0,5-1.09l93.07-23.46a12.77,12.77,0,0,0,6.72-4.24l53.11-64.36c78.4-45.81,151.43-89.63,190.22-116C745,622.61,746,618.84,746.44,616.63ZM616.65,426.17h-.07l-73.7,4.46a12.74,12.74,0,0,0-8.27,3.74l-10.76,10.84,49.66-191.59L718,262.42l40.46,155.17ZM719.11,236.94l-112.68-6.86,144.73-84.73ZM615.33,195.31,737.56,39.76l21.94,71.15Zm-340.88-6.54a12.78,12.78,0,0,0,7.83,2.69H505.1a12.74,12.74,0,0,0,7.83-2.69L681.83,57.41l15.55-7.79L553.79,232.37a11.22,11.22,0,0,0-.81,1.22c-.16.27-.35.52-.49.8s-.29.67-.43,1a11.27,11.27,0,0,0-.46,1.22c0,.14-.1.26-.13.4l0,0L443.3,654.32l-49.61,51.25-49.6-51.25L235.94,237.06s0,0,0-.05-.09-.23-.12-.36a13.88,13.88,0,0,0-.54-1.43c-.09-.2-.14-.42-.24-.61a1.19,1.19,0,0,0-.09-.15,12.19,12.19,0,0,0-.82-1.33c-.16-.23-.29-.48-.46-.69l0-.06L90,49.63l15.54,7.78ZM68.29,236.94,36.23,145.35,181,230.08ZM49.83,39.76,172.05,195.31,27.89,110.92ZM69.44,262.42l144.44-8.79,49.66,191.59-10.76-10.84a12.74,12.74,0,0,0-8.27-3.74l-73.73-4.47h0L29,417.59Z"/></svg>